name rise49.25peak52.1432fall72.8391.mot
datacolumns 19
datarows 26
range 1.58332400000000 1.62499200000000
endheader
time	ground_force1_vx	ground_force1_vy	ground_force1_vz	ground_force1_px	ground_force1_py	ground_force1_pz	ground_force2_vx	ground_force2_vy	ground_force2_vz	ground_force2_px	ground_force2_py	ground_force2_pz	ground_torque1_x	ground_torque1_y	ground_torque1_z	ground_torque2_x	ground_torque2_y	ground_torque2_z	
1.58332400000000	-6.95035200000000	41.85620300000000	-12.03870500000000	0.32509000000000	0.00000000000000	0.08506300000000	-56.36990700000000	776.04721600000005	-57.75473300000000	0.14989600000000	0.00000000000000	-0.10201500000000	0.00000000000000	-8.54629500000000	0.00000000000000	0.00000000000000	-26.86648000000000	0.00000000000000	
1.58500200000000	-7.51376200000000	49.36039900000000	-13.51502600000000	0.33206700000000	0.00000000000000	0.08642100000000	-57.13139800000000	772.93890499999998	-57.27208900000000	0.14898300000000	0.00000000000000	-0.10183000000000	0.00000000000000	-9.72425800000000	0.00000000000000	0.00000000000000	-26.78500100000000	0.00000000000000	
1.58665600000000	-7.91563700000000	57.03857100000000	-14.84896100000000	0.33828700000000	0.00000000000000	0.08763500000000	-57.90166400000000	769.72281099999998	-56.76623000000000	0.14806900000000	0.00000000000000	-0.10164100000000	0.00000000000000	-10.82158700000000	0.00000000000000	0.00000000000000	-26.70191500000000	0.00000000000000	
1.58832200000000	-8.13654200000000	64.79816200000000	-16.00885000000000	0.34387700000000	0.00000000000000	0.08873100000000	-58.67973200000000	766.39666999999997	-56.23709100000000	0.14715500000000	0.00000000000000	-0.10144700000000	0.00000000000000	-11.81258400000000	0.00000000000000	0.00000000000000	-26.61712700000000	0.00000000000000	
1.59012400000000	-8.16558900000000	72.56721100000000	-16.97395900000000	0.34893600000000	0.00000000000000	0.08972800000000	-59.46454300000000	762.95810200000005	-55.68463000000000	0.14624000000000	0.00000000000000	-0.10124700000000	0.00000000000000	-12.67923900000000	0.00000000000000	0.00000000000000	-26.53052900000000	0.00000000000000	
1.59165800000000	-8.00020900000000	80.29683400000000	-17.73458800000000	0.35354600000000	0.00000000000000	0.09064100000000	-60.25494900000000	759.40461900000003	-55.10883400000000	0.14532600000000	0.00000000000000	-0.10104400000000	0.00000000000000	-13.41153100000000	0.00000000000000	0.00000000000000	-26.44200000000000	0.00000000000000	
1.59333000000000	-7.64529700000000	87.96138900000000	-18.29125900000000	0.35776800000000	0.00000000000000	0.09148400000000	-61.04971700000000	755.73363199999994	-54.50971900000000	0.14441300000000	0.00000000000000	-0.10083500000000	0.00000000000000	-14.00703700000000	0.00000000000000	0.00000000000000	-26.35140800000000	0.00000000000000	
1.59500500000000	-7.11188500000000	95.55668700000000	-18.65320600000000	0.36165600000000	0.00000000000000	0.09226600000000	-61.84752500000000	751.94245500000000	-53.88733400000000	0.14350000000000	0.00000000000000	-0.10062200000000	0.00000000000000	-14.46997800000000	0.00000000000000	0.00000000000000	-26.25860700000000	0.00000000000000	
1.59666300000000	-6.41554700000000	103.09674600000000	-18.83640800000000	0.36525100000000	0.00000000000000	0.09299500000000	-62.64696700000000	748.02832000000001	-53.24175900000000	0.14258900000000	0.00000000000000	-0.10040500000000	0.00000000000000	-14.80988300000000	0.00000000000000	0.00000000000000	-26.16343900000000	0.00000000000000	
1.59832400000000	-5.57470700000000	110.60960799999999	-18.86141500000000	0.36859000000000	0.00000000000000	0.09367800000000	-63.44655100000000	743.98838100000000	-52.57311000000000	0.14168000000000	0.00000000000000	-0.10018300000000	0.00000000000000	-15.04005400000000	0.00000000000000	0.00000000000000	-26.06573500000000	0.00000000000000	
1.59999000000000	-4.60900600000000	118.13272800000000	-18.75117400000000	0.37170100000000	0.00000000000000	0.09432100000000	-64.24469999999999	739.81973100000005	-51.88154300000000	0.14077300000000	0.00000000000000	-0.09995600000000	0.00000000000000	-15.17597600000000	0.00000000000000	0.00000000000000	-25.96531600000000	0.00000000000000	
1.60165900000000	-3.53785800000000	125.70838100000000	-18.52903600000000	0.37461000000000	0.00000000000000	0.09492800000000	-65.03975900000000	735.51941099999999	-51.16724800000000	0.13986900000000	0.00000000000000	-0.09972500000000	0.00000000000000	-15.23383700000000	0.00000000000000	0.00000000000000	-25.86198800000000	0.00000000000000	
1.60332800000000	-2.37926400000000	133.37945800000000	-18.21707400000000	0.37733900000000	0.00000000000000	0.09550300000000	-65.82999000000000	731.08442800000000	-50.43046100000000	0.13896800000000	0.00000000000000	-0.09949000000000	0.00000000000000	-15.22923500000000	0.00000000000000	0.00000000000000	-25.75555000000000	0.00000000000000	
1.60500800000000	-1.14894700000000	141.18590900000001	-17.83478600000000	0.37990500000000	0.00000000000000	0.09605000000000	-66.61358300000001	726.51176799999996	-49.67145600000000	0.13807100000000	0.00000000000000	-0.09925100000000	0.00000000000000	-15.17616500000000	0.00000000000000	0.00000000000000	-25.64579100000000	0.00000000000000	
1.60667500000000	0.14019100000000	149.16199900000001	-17.39822300000000	0.38232500000000	0.00000000000000	0.09657100000000	-67.38865100000000	721.79841799999997	-48.89055400000000	0.13717800000000	0.00000000000000	-0.09900800000000	0.00000000000000	-15.08629800000000	0.00000000000000	0.00000000000000	-25.53248800000000	0.00000000000000	
1.60833600000000	1.47830300000000	157.33443199999999	-16.91952500000000	0.38461200000000	0.00000000000000	0.09706900000000	-68.15324099999999	716.94137699999999	-48.08811900000000	0.13629100000000	0.00000000000000	-0.09876000000000	0.00000000000000	-14.96857000000000	0.00000000000000	0.00000000000000	-25.41541100000000	0.00000000000000	
1.60998900000000	2.85855200000000	165.72134500000001	-16.40683400000000	0.38677800000000	0.00000000000000	0.09754600000000	-68.90533400000000	711.93768299999999	-47.26456100000000	0.13540900000000	0.00000000000000	-0.09850800000000	0.00000000000000	-14.82904400000000	0.00000000000000	0.00000000000000	-25.29432200000000	0.00000000000000	
1.61166000000000	4.27685800000000	174.33207600000000	-15.86452500000000	0.38883300000000	0.00000000000000	0.09800300000000	-69.64285000000000	706.78443100000004	-46.42033800000000	0.13453300000000	0.00000000000000	-0.09825300000000	0.00000000000000	-14.67102900000000	0.00000000000000	0.00000000000000	-25.16897400000000	0.00000000000000	
1.61333000000000	5.73147200000000	183.16759200000001	-15.29367000000000	0.39078800000000	0.00000000000000	0.09844300000000	-70.36365400000000	701.47879100000000	-45.55595700000000	0.13366500000000	0.00000000000000	-0.09799400000000	0.00000000000000	-14.49537200000000	0.00000000000000	0.00000000000000	-25.03911400000000	0.00000000000000	
1.61499800000000	7.22246000000000	192.22141500000001	-14.69266700000000	0.39264800000000	0.00000000000000	0.09886600000000	-71.06556200000000	696.01803600000005	-44.67197000000000	0.13280400000000	0.00000000000000	-0.09773000000000	0.00000000000000	-14.30088900000000	0.00000000000000	0.00000000000000	-24.90448200000000	0.00000000000000	
1.61666100000000	8.75114000000000	201.48089600000000	-14.05795700000000	0.39442300000000	0.00000000000000	0.09927400000000	-71.74634200000000	690.39955599999996	-43.76898200000000	0.13195200000000	0.00000000000000	-0.09746300000000	0.00000000000000	-14.08487700000000	0.00000000000000	0.00000000000000	-24.76481300000000	0.00000000000000	
1.61832500000000	10.31952700000000	210.92866200000000	-13.38474400000000	0.39611700000000	0.00000000000000	0.09966800000000	-72.40372600000001	684.62088400000005	-42.84764400000000	0.13110900000000	0.00000000000000	-0.09719200000000	0.00000000000000	-13.84363700000000	0.00000000000000	0.00000000000000	-24.61983800000000	0.00000000000000	
1.61998900000000	11.92982700000000	220.54411800000000	-12.66769400000000	0.39773700000000	0.00000000000000	0.10004900000000	-73.03541500000000	678.67971399999999	-41.90865900000000	0.13027600000000	0.00000000000000	-0.09691800000000	0.00000000000000	-13.57298700000000	0.00000000000000	0.00000000000000	-24.46928400000000	0.00000000000000	
1.62166400000000	13.58400700000000	230.30486600000000	-11.90152800000000	0.39928800000000	0.00000000000000	0.10041700000000	-73.63908100000000	672.57391700000005	-40.95277700000000	0.12945500000000	0.00000000000000	-0.09664000000000	0.00000000000000	-13.26871600000000	0.00000000000000	0.00000000000000	-24.31287400000000	0.00000000000000	
1.62333700000000	15.28345800000000	240.18796300000000	-11.08152400000000	0.40077300000000	0.00000000000000	0.10077400000000	-74.21238000000000	666.30156399999998	-39.98080100000000	0.12864500000000	0.00000000000000	-0.09635800000000	0.00000000000000	-12.92695900000000	0.00000000000000	0.00000000000000	-24.15033000000000	0.00000000000000	
1.62499200000000	17.02875800000000	250.17096100000001	-10.20387200000000	0.40219700000000	0.00000000000000	0.10112000000000	-74.75295699999999	659.86093400000004	-38.99358200000000	0.12784900000000	0.00000000000000	-0.09607300000000	0.00000000000000	-12.54448400000000	0.00000000000000	0.00000000000000	-23.98137300000000	0.00000000000000	
